<svg width="236" height="52" viewBox="0 0 236 52" fill="none" xmlns="http://www.w3.org/2000/svg">
<path d="M2.7 14.676C4.044 14.532 5.28 14.424 6.408 14.352C7.56 14.256 8.628 14.208 9.612 14.208C10.164 16.008 10.8 17.892 11.52 19.86C12.24 21.828 12.996 23.808 13.788 25.8C14.604 27.792 15.432 29.712 16.272 31.56C17.52 28.872 18.708 26.112 19.836 23.28C20.988 20.448 22.116 17.436 23.22 14.244C24.516 14.244 25.8 14.28 27.072 14.352C28.344 14.424 29.424 14.52 30.312 14.64C30.312 15.96 30.312 17.532 30.312 19.356C30.336 21.156 30.348 23.1 30.348 25.188C30.372 27.252 30.396 29.316 30.42 31.38C30.444 33.444 30.468 35.388 30.492 37.212C30.516 39.036 30.552 40.608 30.6 41.928C30.048 41.952 29.376 41.976 28.584 42C27.792 42.024 26.964 42.036 26.1 42.036C25.236 42.06 24.432 42.072 23.688 42.072C23.784 39.648 23.856 37.224 23.904 34.8C23.952 32.352 23.988 29.976 24.012 27.672C24.06 25.368 24.084 23.232 24.084 21.264C23.076 24.096 22.032 26.796 20.952 29.364C19.896 31.932 18.768 34.464 17.568 36.96L12.024 37.284C10.656 34.308 9.384 31.464 8.208 28.752C7.032 26.016 5.988 23.472 5.076 21.12L5.868 42.072L1.8 41.928C1.872 40.656 1.944 39.204 2.016 37.572C2.088 35.94 2.148 34.224 2.196 32.424C2.268 30.624 2.328 28.836 2.376 27.06C2.448 25.26 2.508 23.556 2.556 21.948C2.604 20.316 2.64 18.876 2.664 17.628C2.688 16.356 2.7 15.372 2.7 14.676ZM40.4061 42.18C38.3661 42.18 36.6981 41.688 35.4021 40.704C34.1301 39.696 33.4941 38.388 33.4941 36.78C33.4941 35.316 34.0221 33.96 35.0781 32.712C36.1581 31.464 37.6461 30.408 39.5421 29.544C41.4381 28.656 43.6101 28.044 46.0581 27.708C45.1941 25.596 44.0061 24.54 42.4941 24.54C41.5821 24.54 40.4061 24.888 38.9661 25.584C37.5261 26.28 36.0621 27.192 34.5741 28.32L33.4941 24.72C37.0701 22.68 40.4541 21.66 43.6461 21.66C46.1421 21.66 48.1461 22.344 49.6581 23.712C51.1701 25.056 52.2741 27.216 52.9701 30.192C53.6661 33.144 54.0141 37.056 54.0141 41.928C53.5581 41.952 52.7421 41.976 51.5661 42C50.4141 42.048 49.1661 42.072 47.8221 42.072C47.8221 41.304 47.8101 40.548 47.7861 39.804C45.3141 41.388 42.8541 42.18 40.4061 42.18ZM39.4341 36.528C39.4341 37.272 39.7221 37.86 40.2981 38.292C40.8981 38.724 41.6901 38.94 42.6741 38.94C44.4021 38.94 46.0701 38.196 47.6781 36.708C47.5341 34.164 47.2581 32.016 46.8501 30.264C45.9141 30.456 45.0021 30.768 44.1141 31.2C43.2501 31.632 42.4581 32.148 41.7381 32.748C41.0421 33.324 40.4781 33.948 40.0461 34.62C39.6381 35.268 39.4341 35.904 39.4341 36.528ZM57.4397 42.072C57.4157 41.304 57.3917 40.248 57.3677 38.904C57.3437 37.536 57.3197 35.964 57.2957 34.188C57.2957 32.388 57.2837 30.456 57.2597 28.392C57.2597 26.304 57.2597 24.156 57.2597 21.948C57.7877 21.948 58.4357 21.96 59.2037 21.984C59.9717 21.984 60.7397 21.996 61.5077 22.02C62.2997 22.044 62.9477 22.068 63.4517 22.092C63.4517 22.692 63.4517 23.304 63.4517 23.928C65.4917 22.416 67.5677 21.66 69.6797 21.66C71.6237 21.66 73.1957 22.344 74.3957 23.712C75.5957 25.08 76.4597 27.264 76.9877 30.264C77.5397 33.264 77.8157 37.2 77.8157 42.072C77.2637 42.072 76.6037 42.06 75.8357 42.036C75.0677 42.036 74.3117 42.024 73.5677 42C72.8237 41.976 72.1757 41.952 71.6237 41.928C71.6237 37.68 71.5037 34.284 71.2637 31.74C71.0237 29.196 70.6277 27.36 70.0757 26.232C69.5237 25.104 68.7797 24.54 67.8437 24.54C67.0757 24.54 66.2957 24.864 65.5037 25.512C64.7117 26.16 64.0277 27.012 63.4517 28.068C63.4277 30.108 63.4037 32.04 63.3797 33.864C63.3797 35.688 63.3677 37.308 63.3437 38.724C63.3197 40.116 63.2957 41.184 63.2717 41.928C62.5277 41.952 61.6157 41.976 60.5357 42C59.4797 42.048 58.4477 42.072 57.4397 42.072ZM83.1746 46.68L83.0666 43.8C85.0106 43.704 86.6306 43.5 87.9266 43.188C89.2226 42.876 90.2666 42.408 91.0586 41.784C91.8506 41.136 92.4506 40.248 92.8586 39.12C91.2986 40.2 89.5946 40.74 87.7466 40.74C86.2106 40.74 84.8546 40.368 83.6786 39.624C82.5026 38.88 81.5906 37.848 80.9426 36.528C80.2946 35.184 79.9706 33.636 79.9706 31.884C79.9706 29.988 80.3306 28.272 81.0506 26.736C81.7946 25.176 82.7906 23.94 84.0386 23.028C85.2866 22.116 86.6666 21.66 88.1786 21.66C88.9466 21.66 89.7506 21.78 90.5906 22.02C91.4546 22.26 92.3186 22.584 93.1826 22.992C93.1586 22.704 93.1346 22.404 93.1106 22.092C94.1666 22.044 95.1626 22.008 96.0986 21.984C97.0586 21.96 98.1266 21.948 99.3026 21.948C99.3746 23.988 99.4106 25.812 99.4106 27.42C99.4106 30.54 99.2666 33.216 98.9786 35.448C98.6906 37.68 98.1986 39.528 97.5026 40.992C96.8066 42.432 95.8346 43.572 94.5866 44.412C93.3626 45.252 91.8146 45.84 89.9426 46.176C88.0706 46.512 85.8146 46.68 83.1746 46.68ZM85.4066 30.66C85.4066 32.7 85.8146 34.32 86.6306 35.52C87.4466 36.72 88.5386 37.32 89.9066 37.32C91.7066 37.32 92.9426 36.288 93.6146 34.224C93.6386 33.672 93.6506 33.072 93.6506 32.424C93.6506 31.752 93.6386 31.044 93.6146 30.3C93.5906 29.556 93.5546 28.716 93.5066 27.78C93.0506 26.868 92.4266 26.136 91.6346 25.584C90.8666 25.008 90.0506 24.72 89.1866 24.72C88.0106 24.72 87.0866 25.248 86.4146 26.304C85.7426 27.36 85.4066 28.812 85.4066 30.66ZM110.323 42.18C104.971 42.18 102.295 37.296 102.295 27.528C102.295 25.896 102.367 24.144 102.511 22.272C103.087 22.224 103.867 22.188 104.851 22.164C105.859 22.14 107.143 22.128 108.703 22.128C108.559 24.528 108.487 26.664 108.487 28.536C108.487 32.232 108.775 34.956 109.351 36.708C109.951 38.436 110.863 39.3 112.087 39.3C112.903 39.3 113.719 38.964 114.535 38.292C115.375 37.62 116.095 36.732 116.695 35.628C116.671 33.732 116.647 31.608 116.623 29.256C116.623 26.88 116.623 24.444 116.623 21.948C117.607 21.948 118.687 21.96 119.863 21.984C121.063 22.008 122.047 22.044 122.815 22.092C122.815 24.036 122.803 26.004 122.779 27.996C122.779 29.988 122.767 31.896 122.743 33.72C122.743 35.544 122.731 37.176 122.707 38.616C122.683 40.032 122.659 41.136 122.635 41.928C121.699 41.976 120.727 42.012 119.719 42.036C118.711 42.06 117.739 42.072 116.803 42.072C116.779 41.496 116.755 40.752 116.731 39.84C114.667 41.4 112.531 42.18 110.323 42.18ZM135.934 42.18C133.99 42.18 132.238 41.736 130.678 40.848C129.142 39.936 127.918 38.712 127.006 37.176C126.118 35.616 125.674 33.852 125.674 31.884C125.674 29.916 126.106 28.164 126.97 26.628C127.858 25.092 129.058 23.88 130.57 22.992C132.106 22.104 133.846 21.66 135.79 21.66C137.614 21.66 139.246 22.068 140.686 22.884C142.15 23.676 143.326 24.792 144.214 26.232C145.126 27.672 145.666 29.364 145.834 31.308L131.542 33.972C131.998 35.532 132.718 36.804 133.702 37.788C134.686 38.748 135.79 39.228 137.014 39.228C138.142 39.228 139.258 38.844 140.362 38.076C141.466 37.284 142.318 36.276 142.918 35.052L145.474 37.212C144.298 38.796 142.882 40.02 141.226 40.884C139.57 41.748 137.806 42.18 135.934 42.18ZM131.074 30.444C131.074 30.588 131.074 30.708 131.074 30.804L139.462 29.652C139.294 28.116 138.802 26.88 137.986 25.944C137.17 25.008 136.174 24.54 134.998 24.54C133.774 24.54 132.814 25.068 132.118 26.124C131.422 27.156 131.074 28.596 131.074 30.444ZM157.207 42.072C156.607 42.072 155.863 42.06 154.975 42.036C154.111 42.036 153.223 42.024 152.311 42C151.423 41.976 150.643 41.952 149.971 41.928C149.971 40.848 149.971 39.528 149.971 37.968C149.995 36.384 150.007 34.692 150.007 32.892C150.031 31.068 150.043 29.256 150.043 27.456C150.067 25.632 150.091 23.928 150.115 22.344C150.139 20.736 150.163 19.368 150.187 18.24C148.387 18.264 146.635 18.288 144.931 18.312C143.227 18.312 141.667 18.312 140.251 18.312L140.395 14.712C141.931 14.712 143.587 14.724 145.363 14.748C147.139 14.748 148.951 14.76 150.799 14.784C152.647 14.784 154.435 14.796 156.163 14.82C157.915 14.82 159.523 14.832 160.987 14.856C162.451 14.856 163.687 14.868 164.695 14.892C165.727 14.892 166.423 14.904 166.783 14.928L166.891 17.952C165.571 18 164.059 18.048 162.355 18.096C160.651 18.12 158.863 18.144 156.991 18.168C157.015 19.248 157.039 20.544 157.063 22.056C157.087 23.568 157.099 25.212 157.099 26.988C157.123 28.74 157.135 30.516 157.135 32.316C157.159 34.116 157.171 35.856 157.171 37.536C157.195 39.216 157.207 40.728 157.207 42.072ZM171.439 42.18C169.543 42.18 167.827 41.736 166.291 40.848C164.755 39.96 163.531 38.76 162.619 37.248C161.731 35.736 161.287 34.056 161.287 32.208C161.287 30.744 161.563 29.376 162.115 28.104C162.667 26.832 163.435 25.716 164.419 24.756C165.427 23.772 166.579 23.016 167.875 22.488C169.171 21.936 170.551 21.66 172.015 21.66C173.911 21.66 175.627 22.104 177.163 22.992C178.699 23.88 179.911 25.08 180.799 26.592C181.711 28.08 182.167 29.76 182.167 31.632C182.167 33.096 181.891 34.464 181.339 35.736C180.787 37.008 180.007 38.136 178.999 39.12C178.015 40.08 176.875 40.836 175.579 41.388C174.307 41.916 172.927 42.18 171.439 42.18ZM172.483 39.264C173.755 39.264 174.751 38.724 175.471 37.644C176.191 36.54 176.551 35.016 176.551 33.072C176.551 31.44 176.311 29.988 175.831 28.716C175.351 27.444 174.691 26.436 173.851 25.692C173.011 24.948 172.051 24.576 170.971 24.576C169.699 24.576 168.703 25.128 167.983 26.232C167.263 27.312 166.903 28.824 166.903 30.768C166.903 32.376 167.143 33.828 167.623 35.124C168.103 36.396 168.763 37.404 169.603 38.148C170.467 38.892 171.427 39.264 172.483 39.264ZM193.269 42.108C191.445 42.108 189.669 42.036 187.941 41.892C187.509 40.572 187.041 39.096 186.537 37.464C186.057 35.832 185.565 34.14 185.061 32.388C184.581 30.612 184.113 28.86 183.657 27.132C183.225 25.38 182.841 23.748 182.505 22.236C185.361 21.948 187.473 21.804 188.841 21.804C189.273 24.396 189.765 27.072 190.317 29.832C190.893 32.592 191.469 35.16 192.045 37.536C192.741 34.464 193.353 31.644 193.881 29.076C194.409 26.508 194.865 24.18 195.249 22.092C195.849 22.068 196.545 22.044 197.337 22.02C198.153 21.996 198.945 21.984 199.713 21.984C200.505 21.96 201.129 21.948 201.585 21.948C202.041 24.588 202.545 27.264 203.097 29.976C203.649 32.664 204.213 35.184 204.789 37.536C205.437 34.68 206.037 31.932 206.589 29.292C207.141 26.628 207.609 24.168 207.993 21.912L211.449 22.128C210.897 24.528 210.309 26.928 209.685 29.328C209.061 31.704 208.437 33.972 207.813 36.132C207.189 38.268 206.589 40.188 206.013 41.892C204.837 42.036 203.061 42.108 200.685 42.108C200.109 40.308 199.497 38.292 198.849 36.06C198.201 33.828 197.589 31.596 197.013 29.364C196.389 31.788 195.753 34.092 195.105 36.276C194.457 38.46 193.845 40.404 193.269 42.108ZM214.166 42.072C214.142 41.304 214.118 40.248 214.094 38.904C214.07 37.536 214.046 35.964 214.022 34.188C214.022 32.388 214.01 30.456 213.986 28.392C213.986 26.304 213.986 24.156 213.986 21.948C214.514 21.948 215.162 21.96 215.93 21.984C216.698 21.984 217.466 21.996 218.234 22.02C219.026 22.044 219.674 22.068 220.178 22.092C220.178 22.692 220.178 23.304 220.178 23.928C222.218 22.416 224.294 21.66 226.406 21.66C228.35 21.66 229.922 22.344 231.122 23.712C232.322 25.08 233.186 27.264 233.714 30.264C234.266 33.264 234.542 37.2 234.542 42.072C233.99 42.072 233.33 42.06 232.562 42.036C231.794 42.036 231.038 42.024 230.294 42C229.55 41.976 228.902 41.952 228.35 41.928C228.35 37.68 228.23 34.284 227.99 31.74C227.75 29.196 227.354 27.36 226.802 26.232C226.25 25.104 225.506 24.54 224.57 24.54C223.802 24.54 223.022 24.864 222.23 25.512C221.438 26.16 220.754 27.012 220.178 28.068C220.154 30.108 220.13 32.04 220.106 33.864C220.106 35.688 220.094 37.308 220.07 38.724C220.046 40.116 220.022 41.184 219.998 41.928C219.254 41.952 218.342 41.976 217.262 42C216.206 42.048 215.174 42.072 214.166 42.072Z" fill="#F62F00"/>
</svg>
